<?xml version="1.0" standalone="no"?>
<!DOCTYPE svg PUBLIC "-//W3C//DTD SVG 20010904//EN"
 "http://www.w3.org/TR/2001/REC-SVG-20010904/DTD/svg10.dtd">
<svg version="1.0" xmlns="http://www.w3.org/2000/svg"
 width="334.000000pt" height="204.000000pt" viewBox="0 0 334.000000 204.000000"
 preserveAspectRatio="xMidYMid meet">
<metadata>
Created by potrace 1.16, written by Peter Selinger 2001-2019
</metadata>
<g transform="translate(0.000000,204.000000) scale(0.100000,-0.100000)"
fill="#000000" stroke="none">
<path d="M1870 1493 c-53 -9 -78 -25 -95 -62 -23 -51 -17 -71 27 -95 30 -16
38 -25 41 -55 l4 -36 1 38 c2 31 6 37 25 37 33 1 65 32 72 74 6 29 3 43 -16
71 -13 19 -26 34 -29 34 -3 -1 -16 -4 -30 -6z"/>
<path d="M1630 1202 c-25 -26 -57 -66 -70 -89 -13 -24 -26 -43 -29 -43 -3 0
-16 23 -28 50 -17 39 -27 50 -45 50 -33 0 -44 -10 -63 -55 -18 -44 -38 -247
-33 -347 l3 -63 66 -3 c66 -3 66 -3 79 28 10 25 11 51 1 127 -6 53 -9 98 -6
101 2 3 25 -3 50 -13 26 -9 56 -14 70 -11 17 4 25 2 25 -7 0 -20 20 -180 25
-204 4 -15 13 -23 26 -23 45 0 64 119 64 393 0 151 -3 157 -60 157 -23 -1 -41
-12 -75 -48z"/>
<path d="M967 1198 c-8 -18 -15 -62 -16 -98 -1 -36 -6 -119 -11 -185 -11 -126
-7 -177 15 -195 18 -15 114 -24 160 -16 32 6 36 10 33 34 -2 22 -9 28 -35 30
-18 2 -34 9 -34 15 -3 27 -8 229 -9 335 l0 112 -45 0 c-41 0 -46 -3 -58 -32z"/>
<path d="M1179 1214 c-16 -19 -16 -34 -2 -283 12 -211 18 -230 68 -217 42 11
65 77 65 194 0 105 -28 302 -45 314 -18 14 -72 8 -86 -8z"/>
<path d="M1839 1214 c-16 -19 -16 -34 -2 -283 12 -211 18 -230 68 -217 42 11
65 77 65 194 0 105 -28 302 -45 314 -18 14 -72 8 -86 -8z"/>
<path d="M2573 1219 c-106 -8 -143 -19 -143 -44 0 -19 -16 -19 -27 -2 -13 23
-36 26 -124 16 -135 -15 -299 -63 -299 -87 0 -5 20 -15 45 -21 25 -6 45 -17
45 -24 2 -63 29 -327 34 -336 13 -21 45 -12 52 14 3 14 12 25 19 25 14 0 30
165 23 255 l-3 50 45 6 c25 3 72 15 105 27 32 12 61 22 62 22 2 0 2 -62 1
-137 0 -76 4 -156 10 -178 6 -22 14 -52 17 -67 4 -20 16 -32 39 -42 32 -13 44
-12 153 15 65 16 133 36 151 45 30 16 31 18 16 36 -21 23 -33 23 -134 -3 -45
-11 -84 -18 -87 -16 -7 8 -33 111 -33 135 0 12 6 22 14 22 7 0 36 7 62 14 27
8 61 18 77 21 29 6 38 25 11 25 -8 0 -12 5 -9 10 4 7 -8 9 -34 5 -23 -3 -59
-7 -82 -10 l-41 -6 6 38 c3 21 8 63 11 94 l6 57 83 7 c98 8 124 19 83 34 -16
6 -34 10 -40 10 -7 -1 -58 -5 -114 -10z"/>
<path d="M2837 1200 c-55 -17 -76 -50 -32 -50 l25 0 0 -198 c0 -159 -3 -202
-15 -218 -24 -31 -18 -36 38 -29 173 22 250 49 303 107 77 83 80 103 23 217
-35 72 -47 86 -97 118 -30 20 -72 39 -91 43 -69 15 -126 18 -154 10z m210
-121 c51 -50 63 -68 68 -103 9 -58 -9 -118 -43 -143 -29 -21 -107 -63 -117
-63 -5 0 -1 352 4 368 4 13 36 -8 88 -59z"/>
<path d="M591 1182 c-21 -40 -60 -306 -61 -419 0 -84 13 -100 66 -78 36 15 48
42 65 145 7 41 14 68 16 60 13 -47 80 -171 95 -176 43 -13 78 29 92 111 10 58
18 276 12 319 -6 41 -10 44 -42 51 -46 8 -61 -5 -70 -61 -7 -50 -20 -50 -30 1
-5 27 -13 36 -45 49 -52 21 -86 20 -98 -2z"/>
<path d="M156 1138 c-9 -36 -7 -187 4 -257 20 -121 70 -181 153 -181 60 0 122
44 136 97 30 110 43 175 48 240 l6 71 -41 26 c-78 49 -89 35 -102 -137 -11
-160 -26 -229 -48 -225 -15 3 -17 24 -19 178 l-1 175 -34 17 c-49 25 -94 23
-102 -4z"/>
</g>
</svg>
